<?xml version="1.0" standalone="no"?>
<!DOCTYPE svg PUBLIC "-//W3C//DTD SVG 20010904//EN"
 "http://www.w3.org/TR/2001/REC-SVG-20010904/DTD/svg10.dtd">
<svg version="1.0" xmlns="http://www.w3.org/2000/svg"
 width="16.000000pt" height="16.000000pt" viewBox="0 0 16.000000 16.000000"
 preserveAspectRatio="xMidYMid meet">
<metadata>
Created by potrace 1.11, written by Peter Selinger 2001-2013
</metadata>
<g transform="translate(0.000000,16.000000) scale(0.001563,-0.001563)"
fill="#000000" stroke="none">
<path d="M147 10183 c-4 -3 -7 -320 -7 -704 0 -613 2 -698 15 -703 8 -3 129
-4 268 -3 242 2 254 3 300 26 60 29 102 84 117 153 6 29 10 137 10 244 -2 213
-8 237 -71 269 l-31 16 33 18 c65 35 71 59 67 306 -3 204 -5 223 -25 262 -30
56 -86 100 -145 113 -53 11 -520 14 -531 3z m449 -248 c8 -10 14 -33 15 -49 6
-218 4 -241 -16 -263 -21 -23 -41 -26 -157 -24 l-58 1 0 178 0 179 101 -2 c87
-1 104 -4 115 -20z m-19 -579 c31 -10 34 -28 35 -177 1 -177 4 -175 -199 -170
l-33 1 0 174 c0 158 2 175 18 178 29 6 156 2 179 -6z"/>
<path d="M1034 10179 c-9 -15 -10 -1382 -1 -1396 10 -16 214 -14 227 2 7 8 9
244 8 706 l-3 694 -112 3 c-79 2 -114 -1 -119 -9z"/>
<path d="M1449 10183 c-6 -37 -4 -1382 2 -1394 7 -14 26 -16 106 -16 54 0 105
3 113 8 13 6 15 43 15 236 l1 228 59 3 60 3 24 -88 c13 -48 35 -131 48 -183
14 -52 33 -120 42 -150 l16 -55 106 -2 c58 0 111 2 118 6 12 8 0 63 -92 404
-13 48 -21 87 -17 87 3 0 25 16 47 35 70 59 76 94 76 410 0 342 -11 384 -110
442 l-48 28 -282 3 c-156 2 -284 0 -284 -5z m438 -232 c6 0 19 -8 27 -17 22
-21 24 -400 2 -429 -11 -16 -30 -19 -120 -22 -96 -3 -106 -2 -107 14 -6 86 -2
449 5 454 6 5 145 5 193 0z"/>
<path d="M2355 10181 c-3 -6 -6 -322 -6 -702 0 -558 2 -694 13 -700 7 -5 128
-7 268 -6 244 3 257 4 303 26 60 29 103 86 116 154 6 31 9 257 9 547 -1 453
-2 499 -19 544 -22 58 -50 90 -104 119 -38 21 -56 22 -307 25 -177 2 -268 0
-273 -7z m432 -230 c33 -3 36 -42 36 -474 0 -407 -1 -430 -19 -447 -19 -18
-62 -23 -176 -21 l-38 1 0 473 0 473 93 -1 c50 -1 97 -3 104 -4z"/>
<path d="M3405 10181 c-74 -19 -123 -60 -151 -126 -15 -34 -18 -78 -20 -294
-1 -162 2 -263 9 -278 9 -19 47 -35 234 -96 l223 -72 0 -136 c0 -168 -1 -169
-113 -169 -55 0 -80 4 -91 16 -18 18 -18 13 -20 122 -1 47 -7 86 -13 90 -6 4
-57 7 -113 6 -76 -1 -104 -4 -111 -15 -10 -16 -4 -261 7 -299 15 -51 58 -102
108 -128 50 -26 56 -26 231 -27 176 0 181 1 235 27 59 30 94 71 111 133 6 21
11 139 11 264 0 281 1 267 -17 285 -8 8 -113 47 -233 87 l-217 72 0 131 c1
130 10 174 38 177 62 7 127 5 150 -3 32 -12 36 -26 39 -138 l3 -85 110 -3 c84
-2 112 0 120 11 13 18 10 241 -4 292 -17 63 -46 101 -98 132 -47 28 -51 28
-223 30 -96 1 -188 -2 -205 -6z"/>
<path d="M4709 10175 c-52 -17 -91 -52 -123 -110 -21 -39 -21 -49 -23 -565 -2
-484 -1 -529 16 -578 22 -64 49 -95 110 -124 41 -20 63 -23 206 -24 193 -2
253 10 306 62 69 68 68 57 69 638 0 314 -4 535 -10 555 -16 57 -60 110 -109
134 -41 19 -65 22 -221 24 -131 2 -187 -1 -221 -12z m311 -235 c19 -19 20 -33
20 -457 -1 -370 -3 -441 -15 -457 -22 -29 -175 -33 -207 -6 l-23 18 1 440 c0
523 -10 482 121 482 70 0 86 -3 103 -20z"/>
<path d="M5449 10163 c-4 -126 -3 -1358 2 -1371 5 -13 23 -17 110 -20 89 -2
105 0 116 15 10 13 13 87 13 298 l0 281 163 -1 c89 0 170 3 180 8 16 7 17 21
15 115 l-3 107 -177 3 -178 2 0 178 0 178 225 0 c123 0 228 3 232 7 8 8 13
195 6 215 -4 9 -84 12 -354 12 l-349 0 -1 -27z"/>
<path d="M6779 10178 c-6 -56 -4 -1377 2 -1389 7 -13 28 -16 113 -17 72 -1
108 3 113 11 4 7 8 109 9 227 1 118 2 220 3 227 1 8 47 12 154 15 150 3 155 4
203 33 38 23 56 43 78 88 l29 58 1 267 c1 147 -3 287 -8 312 -14 65 -49 115
-103 147 l-48 28 -272 3 c-219 3 -273 1 -274 -10z m447 -243 c8 -10 14 -28 14
-39 4 -149 1 -358 -5 -375 -9 -31 -37 -38 -135 -37 l-84 1 -1 230 c-1 127 0
233 1 236 2 3 46 5 99 4 84 0 99 -3 111 -20z"/>
<path d="M7667 10183 c-4 -3 -7 -320 -7 -704 l0 -697 28 -6 c41 -8 637 -5 651
3 8 5 11 41 9 117 l-3 109 -190 2 c-104 1 -205 2 -222 2 l-33 1 0 353 c0 193
0 459 0 590 l0 237 -113 0 c-63 0 -117 -3 -120 -7z"/>
<path d="M8776 10182 c-6 -9 -21 -75 -31 -131 -3 -19 -7 -37 -9 -40 -2 -3 -7
-24 -10 -46 -4 -22 -11 -56 -16 -75 -9 -35 -218 -1002 -226 -1050 -3 -14 -6
-30 -9 -37 -2 -6 2 -16 9 -22 17 -14 200 -13 219 2 10 8 23 58 37 137 12 69
24 127 27 130 2 3 72 5 154 6 172 1 159 9 179 -106 8 -41 14 -77 15 -80 1 -3
5 -24 9 -47 5 -26 14 -44 24 -47 27 -8 199 -4 213 4 9 6 7 31 -10 112 -13 56
-25 114 -27 128 -3 14 -13 63 -24 110 -34 152 -52 235 -56 260 -3 14 -7 33
-10 42 -3 9 -7 27 -9 40 -31 161 -150 696 -158 706 -11 14 -282 18 -291 4z
m188 -537 c3 -16 15 -79 26 -140 11 -60 24 -134 30 -164 5 -29 10 -59 10 -66
0 -9 -30 -12 -111 -12 l-111 -1 7 37 c4 20 9 47 11 61 3 14 7 34 8 45 2 11 13
70 25 130 12 61 23 119 25 130 2 11 9 54 15 95 18 112 22 113 42 10 9 -52 20
-108 23 -125z"/>
<path d="M9396 10183 c-3 -4 -6 -171 -6 -372 1 -317 4 -372 18 -412 20 -53 36
-76 76 -107 44 -34 94 -43 241 -43 l135 -1 0 -234 0 -234 23 -4 c31 -6 145 -6
185 0 l32 5 -2 702 -3 702 -115 0 -115 0 -5 -351 -5 -351 -82 0 c-104 -2 -119
3 -132 35 -6 17 -10 142 -9 338 0 171 -2 316 -6 323 -8 12 -217 16 -230 4z"/>
<path d="M4920 8484 c-107 -18 -213 -68 -257 -122 -26 -32 -37 -38 -74 -40
-66 -4 -186 -39 -252 -74 -33 -18 -78 -54 -103 -82 -64 -74 -86 -138 -90 -268
-4 -121 -11 -111 79 -109 70 2 179 -24 226 -53 93 -59 112 -192 51 -361 -36
-101 -89 -215 -100 -215 -5 0 -45 7 -91 16 -421 78 -701 298 -821 643 -10 31
-21 72 -24 91 -3 19 -10 55 -14 80 -11 59 -5 310 9 379 6 29 11 60 11 67 0 12
-266 14 -1666 14 l-1666 0 34 -27 c18 -16 38 -33 43 -39 6 -6 89 -78 185 -161
96 -82 202 -173 234 -201 l59 -52 1096 0 c944 0 1099 -2 1117 -15 16 -11 24
-33 33 -92 45 -286 176 -534 401 -762 289 -293 580 -457 847 -478 l73 -6 -5
-76 c-3 -42 -7 -107 -10 -146 -3 -38 -7 -106 -10 -150 -3 -44 -7 -105 -10
-135 -3 -30 -7 -98 -10 -150 -3 -52 -8 -120 -10 -150 -2 -30 -7 -95 -10 -145
-9 -144 -15 -226 -20 -285 -3 -30 -7 -98 -10 -150 -3 -52 -8 -116 -10 -142
l-5 -47 147 -123 c80 -68 151 -128 157 -133 6 -6 121 -103 256 -215 135 -113
256 -214 270 -226 89 -77 135 -114 143 -114 7 0 105 77 127 100 3 3 84 70 180
150 96 80 177 147 180 150 3 3 73 62 155 130 168 140 193 161 209 175 6 6 37
32 69 58 55 47 57 50 52 90 -2 23 -7 85 -10 137 -3 52 -8 118 -10 145 -3 28
-7 88 -10 135 -3 47 -7 119 -10 160 -3 41 -8 109 -10 150 -3 41 -7 107 -10
145 -3 39 -7 106 -10 150 -3 44 -8 107 -10 140 -3 33 -7 96 -10 140 -3 44 -8
114 -11 155 l-6 76 39 2 c127 8 277 51 408 119 71 37 219 133 265 172 14 12
50 43 80 69 220 187 389 422 468 647 25 73 59 205 66 260 7 57 14 72 39 79 12
3 513 6 1113 6 1024 0 1091 1 1110 18 11 9 55 48 99 87 44 38 85 74 91 80 6 5
39 35 74 65 35 30 68 60 74 65 6 6 50 45 99 88 l87 77 -1700 0 c-935 0 -1700
-3 -1700 -7 1 -5 5 -28 10 -53 35 -171 35 -446 0 -583 -77 -301 -267 -479
-672 -630 -78 -29 -71 -36 -88 93 -17 132 -19 151 -25 215 -3 33 -8 71 -10 85
-3 14 -7 57 -10 95 -4 39 -8 77 -10 85 -2 8 -7 33 -10 55 -5 34 -48 200 -59
230 -2 6 -7 21 -12 35 -4 13 -27 64 -51 112 -114 229 -265 303 -633 312 -73 2
-161 -3 -210 -10z m105 -268 c19 -8 36 -21 36 -28 6 -62 -23 -79 -139 -80 -64
0 -121 16 -124 36 -4 34 -3 42 6 55 6 7 19 17 31 21 33 14 153 11 190 -4z m53
-2648 c1 -16 -3 -29 -10 -30 -12 -1 -42 -3 -95 -7 -21 -1 -23 -6 -23 -50 l0
-48 48 1 c46 1 47 0 47 -29 0 -29 -2 -30 -47 -33 l-48 -3 0 -80 c0 -78 0 -79
-25 -79 -14 0 -28 -1 -32 -2 -8 -3 -14 370 -7 383 2 4 46 7 97 6 l93 0 2 -29z
m214 16 c12 -6 20 -27 24 -62 l5 -52 -33 0 c-29 0 -34 4 -36 26 -1 14 -4 30
-7 34 -5 8 -43 6 -51 -3 -4 -3 -7 -210 -5 -244 1 -8 14 -13 31 -13 29 0 36 10
31 47 -2 14 42 28 58 19 12 -8 7 -94 -7 -108 -27 -27 -138 -26 -165 1 -8 8
-12 65 -13 172 -1 158 -1 160 23 179 26 20 112 23 145 4z"/>
<path d="M2748 7905 c-2 -2 -41 -6 -88 -9 -47 -4 -110 -9 -140 -11 -64 -6
-170 -14 -255 -20 -33 -2 -91 -7 -130 -10 -38 -3 -97 -8 -130 -10 -149 -12
-185 -15 -260 -21 -44 -4 -96 -8 -115 -9 -98 -7 -228 -17 -250 -20 -14 -2 -74
-6 -134 -10 -60 -4 -118 -8 -128 -10 -10 -2 -48 -5 -84 -6 -35 -1 -67 -6 -70
-10 -2 -4 37 -43 88 -85 51 -43 95 -81 98 -84 4 -4 51 -44 154 -131 16 -13 34
-29 40 -34 6 -6 59 -52 118 -102 l107 -91 48 15 c26 8 71 21 98 28 47 12 179
49 540 152 88 25 165 46 170 47 6 1 112 31 238 66 171 48 227 68 227 79 0 9
-17 77 -38 151 l-38 135 -32 1 c-17 1 -33 0 -34 -1z"/>
<path d="M7417 7858 c-37 -128 -68 -250 -65 -252 2 -1 86 -25 188 -54 102 -28
395 -110 651 -182 257 -71 474 -130 483 -130 10 0 23 6 31 13 7 6 32 28 55 46
23 19 48 40 54 46 6 5 40 35 76 65 36 30 67 57 70 60 3 3 34 30 70 60 35 30
76 65 90 77 55 48 77 66 123 105 53 45 57 54 25 54 -34 1 -238 15 -271 19 -15
2 -67 6 -115 10 -177 13 -198 15 -259 20 -72 6 -157 13 -258 20 -38 3 -90 7
-115 10 -25 2 -85 7 -135 10 -49 4 -103 8 -120 10 -16 2 -75 7 -130 10 -55 4
-118 8 -140 10 -22 2 -76 6 -120 10 -44 3 -101 8 -127 11 l-46 5 -15 -53z"/>
<path d="M2880 7509 c-25 -10 -184 -67 -355 -128 -170 -60 -337 -119 -370
-131 -33 -12 -135 -48 -227 -80 -92 -32 -175 -63 -183 -67 -12 -7 24 -43 162
-159 569 -478 507 -430 525 -414 7 6 51 38 98 73 153 112 465 341 475 350 6 4
51 38 102 76 l92 68 -57 79 c-64 86 -110 161 -167 269 -21 39 -40 73 -44 76
-3 4 -26 -2 -51 -12z"/>
<path d="M7266 7426 c-27 -56 -53 -105 -58 -111 -4 -5 -27 -38 -51 -72 -23
-34 -55 -81 -72 -104 l-29 -41 34 -28 c19 -15 96 -72 170 -127 74 -55 233
-172 353 -261 141 -104 223 -159 231 -155 8 5 38 29 67 54 30 26 92 79 139
119 47 40 96 82 110 94 14 12 95 80 180 151 85 72 158 134 162 140 12 17 77
-8 -577 225 -203 73 -424 151 -490 174 l-120 43 -49 -101z"/>
<path d="M3205 7016 c-11 -11 -65 -61 -119 -111 -55 -49 -104 -95 -110 -100
-6 -6 -40 -37 -76 -70 -36 -32 -112 -102 -170 -156 -58 -53 -123 -113 -144
-132 -34 -30 -38 -37 -25 -48 12 -13 153 -132 339 -288 36 -29 92 -77 124
-105 32 -28 67 -57 76 -63 16 -11 42 19 241 275 123 158 246 316 273 352 28
36 56 71 63 78 7 7 13 15 13 17 0 4 -87 71 -156 120 -60 43 -181 143 -240 198
-34 31 -63 57 -65 56 -2 -1 -13 -11 -24 -23z"/>
<path d="M6980 7007 c-14 -17 -113 -101 -221 -187 l-196 -156 26 -31 c14 -16
73 -92 131 -168 186 -243 392 -510 404 -522 8 -9 24 -1 67 35 31 26 76 63 99
82 23 19 47 40 54 45 6 6 85 73 176 149 91 77 169 142 174 147 4 4 -5 20 -21
36 -33 32 -213 197 -245 224 -11 10 -62 56 -112 102 -50 46 -120 110 -156 142
-36 33 -83 76 -105 97 -22 21 -42 38 -45 37 -3 0 -16 -14 -30 -32z"/>
<path d="M3706 6556 c-446 -677 -477 -728 -459 -745 83 -76 735 -621 742 -621
5 0 10 8 9 18 0 9 2 33 5 52 10 56 29 192 33 225 1 17 10 76 18 131 9 56 18
123 21 150 3 27 8 63 11 79 6 31 7 45 19 134 4 30 9 63 11 75 2 11 6 38 9 61
6 43 14 105 20 145 41 277 48 247 -65 276 -52 14 -146 42 -208 63 l-112 39
-54 -82z"/>
<path d="M6371 6598 c-62 -21 -155 -49 -205 -63 l-91 -23 1 -34 c1 -36 35
-281 49 -358 2 -14 7 -47 10 -75 3 -27 7 -61 10 -75 2 -14 7 -43 9 -65 5 -37
32 -227 41 -285 2 -14 11 -79 20 -145 9 -66 18 -131 21 -145 2 -14 7 -51 11
-82 3 -32 10 -58 15 -58 8 0 124 95 148 120 3 3 17 15 32 26 29 23 117 97 183
154 22 20 114 98 205 175 91 76 171 143 177 149 10 9 1 29 -39 91 -29 44 -57
88 -63 97 -28 48 -388 596 -403 614 l-17 20 -114 -38z"/>
<path d="M1745 6353 c6 -125 14 -306 20 -408 2 -44 7 -134 10 -200 9 -196 18
-327 39 -600 3 -33 8 -96 11 -140 10 -135 19 -201 46 -340 11 -55 22 -111 24
-125 49 -273 195 -810 298 -1100 58 -164 179 -461 233 -577 24 -51 44 -94 44
-97 0 -2 23 -43 50 -91 28 -48 50 -89 50 -91 0 -11 252 -422 333 -544 123
-184 324 -453 434 -580 50 -58 169 -184 264 -280 159 -160 201 -200 324 -302
22 -18 87 -74 145 -123 58 -50 152 -129 210 -175 58 -47 111 -91 118 -98 25
-22 136 -98 202 -137 36 -21 81 -48 100 -60 19 -12 64 -40 100 -63 107 -67
272 -145 310 -146 19 0 58 10 85 23 28 13 79 37 115 53 35 16 110 58 165 92
55 35 147 92 204 126 245 149 797 630 1135 990 343 365 828 1105 1040 1590 21
47 44 99 51 115 101 228 285 768 319 940 3 11 23 94 45 185 22 91 52 221 67
290 35 166 33 160 39 200 3 19 7 46 10 60 3 14 7 48 10 75 3 28 7 59 9 70 2
11 7 52 10 90 4 39 9 86 11 105 5 46 14 167 20 260 2 41 7 116 10 165 3 50 8
132 10 182 2 51 6 134 9 185 19 325 29 578 22 578 -9 0 -226 -161 -227 -168
-2 -11 -6 -87 -13 -262 -4 -91 -9 -190 -11 -220 -2 -30 -7 -107 -10 -170 -10
-191 -25 -458 -30 -515 -14 -167 -17 -204 -21 -237 -10 -89 -14 -124 -19 -148
-2 -14 -7 -45 -11 -70 -3 -25 -19 -110 -35 -190 -17 -80 -33 -156 -35 -170 -3
-14 -14 -61 -26 -105 -11 -44 -22 -91 -24 -105 -30 -163 -203 -698 -294 -905
-10 -22 -27 -63 -38 -91 -86 -209 -192 -407 -400 -748 -67 -109 -262 -394
-309 -451 -5 -5 -37 -48 -72 -95 -171 -226 -425 -488 -731 -751 -287 -245
-442 -368 -535 -424 -44 -27 -127 -77 -185 -113 -135 -84 -305 -164 -346 -164
-32 -1 -230 99 -359 180 -60 39 -140 89 -178 112 -62 38 -150 106 -287 220
-397 332 -613 536 -845 800 -115 132 -393 525 -526 745 -217 360 -285 496
-417 825 -104 261 -169 458 -251 765 -42 157 -90 359 -106 445 -2 14 -16 81
-30 150 -14 69 -28 150 -30 180 -3 30 -7 78 -10 105 -2 28 -7 84 -10 125 -3
41 -8 93 -10 115 -5 55 -18 258 -30 480 -3 66 -8 149 -10 185 -2 36 -7 137
-11 225 -7 172 -11 246 -13 256 -1 6 -248 189 -256 189 -2 0 -2 -44 0 -97z"/>
<path d="M7679 5860 c-189 -138 -357 -261 -374 -273 -16 -13 -122 -90 -235
-172 -113 -82 -236 -172 -275 -200 -38 -28 -135 -99 -215 -157 -931 -677
-1235 -901 -1232 -909 1 -6 -2 -8 -7 -5 -13 9 -63 -37 -53 -49 4 -5 61 -55
127 -110 66 -55 131 -110 145 -122 14 -12 133 -112 265 -224 132 -111 242
-205 245 -208 3 -3 75 -64 160 -135 85 -72 173 -146 196 -165 22 -20 53 -47
70 -61 16 -13 72 -61 125 -105 235 -197 406 -343 438 -373 l36 -33 -50 35
c-27 20 -61 44 -75 54 -24 18 -61 45 -375 273 -71 51 -137 99 -145 106 -51 41
-1324 963 -1330 963 -4 0 -47 -29 -96 -65 -49 -36 -114 -83 -144 -105 -30 -21
-154 -111 -275 -200 -121 -88 -290 -211 -375 -272 -85 -62 -159 -116 -165
-121 -34 -28 -915 -665 -911 -658 3 5 59 53 123 107 65 54 120 101 123 104 3
3 32 27 65 55 33 27 62 52 65 55 3 3 45 38 93 78 48 41 98 83 111 95 14 12 44
38 67 57 42 34 138 115 244 205 209 178 266 227 612 519 160 135 294 250 298
255 8 14 -25 43 -42 37 -8 -3 -12 -2 -8 3 3 5 -52 51 -122 102 -71 51 -166
121 -213 155 -171 125 -371 270 -426 309 -31 22 -62 45 -68 50 -11 11 -306
225 -350 255 -23 16 -124 89 -141 103 -17 14 -249 181 -275 199 -14 9 -83 60
-155 112 -159 117 -133 98 -372 271 -109 79 -203 148 -208 153 -6 5 -64 48
-130 95 -66 47 -125 90 -130 94 -38 30 -84 63 -88 63 -3 0 -4 -35 -2 -77 2
-43 6 -138 9 -212 3 -74 7 -135 8 -136 2 -1 338 -194 748 -430 410 -236 821
-473 913 -527 93 -54 171 -98 173 -98 2 0 21 -11 42 -23 37 -24 599 -349 682
-395 103 -57 55 -39 -70 25 -74 39 -279 144 -455 233 -176 89 -410 209 -520
265 -110 56 -292 150 -405 207 -113 58 -353 181 -535 273 -181 93 -381 194
-444 227 -62 32 -115 58 -117 58 -4 0 0 -84 11 -250 3 -41 8 -106 10 -145 2
-38 6 -95 9 -125 3 -30 8 -86 11 -125 14 -164 15 -175 51 -348 8 -42 17 -87
19 -100 11 -58 59 -264 87 -367 16 -63 31 -122 33 -130 25 -115 127 -418 215
-640 90 -226 147 -352 221 -482 28 -51 63 -113 77 -138 21 -38 70 -119 77
-128 5 -7 64 31 60 39 -4 5 0 7 7 4 14 -5 17 -3 215 106 184 102 216 119 298
164 39 21 153 84 255 140 102 56 216 119 255 140 38 21 269 147 512 281 l443
244 32 -18 c18 -10 62 -35 98 -54 36 -20 220 -121 410 -226 190 -104 381 -209
425 -232 44 -24 97 -54 117 -67 21 -13 40 -23 42 -23 2 0 35 -17 73 -39 37
-21 100 -55 138 -76 39 -21 169 -93 290 -160 324 -179 375 -207 375 -200 0 3
10 -4 22 -15 l22 -21 18 23 c10 13 18 27 18 32 0 5 6 17 14 25 7 9 28 43 46
76 18 33 50 90 72 127 144 249 349 783 447 1163 44 169 123 523 136 605 3 19
7 46 10 60 12 65 23 146 30 230 3 36 8 81 10 100 2 19 7 74 10 123 3 48 7 124
10 170 3 45 7 121 10 169 5 102 18 99 -130 23 -55 -29 -275 -141 -490 -250
-214 -109 -507 -257 -650 -330 -143 -73 -388 -198 -545 -277 -157 -80 -401
-204 -542 -276 -142 -72 -258 -130 -258 -128 0 3 78 49 210 124 19 11 118 68
220 127 102 59 203 117 225 130 37 20 204 116 588 339 87 50 172 99 190 110
29 16 499 287 607 350 25 14 98 56 163 93 65 38 126 73 135 78 9 6 79 45 155
89 120 69 137 82 138 105 0 14 2 51 4 81 7 112 14 320 11 320 -1 0 -157 -113
-347 -250z m-4375 -1502 c-10 -62 -19 -76 -48 -71 -19 4 -24 11 -23 30 2 25 0
25 -63 25 -36 0 -72 0 -81 -1 -12 -1 -18 -16 -24 -53 -15 -109 -20 -101 67
-103 43 0 79 -3 82 -6 3 -3 3 -15 -1 -27 -5 -21 -11 -22 -92 -22 l-86 0 -16
-80 -16 -80 89 0 89 0 5 29 c5 23 11 28 35 29 32 1 32 2 14 -85 l-7 -33 -179
0 -179 0 0 24 c0 24 23 40 51 34 12 -3 36 84 53 187 6 40 25 144 32 173 3 15
0 22 -8 21 -44 -5 -52 5 -39 49 1 1 80 2 176 2 l175 0 -6 -42z m3742 26 c-3
-9 -6 -20 -6 -25 0 -5 -13 -9 -30 -9 -23 0 -31 -5 -35 -22 -17 -78 -25 -115
-25 -129 0 -13 18 -15 125 -15 69 0 125 4 125 8 0 12 1 16 10 49 5 18 12 50
15 72 6 39 6 39 -24 35 -32 -5 -37 4 -25 36 5 13 24 16 100 16 92 0 94 0 90
-22 -3 -13 -5 -26 -5 -29 -1 -3 -14 -4 -30 -1 -28 4 -30 2 -40 -50 -72 -340
-71 -339 -38 -335 17 2 22 -3 22 -23 0 -25 -1 -25 -93 -28 l-93 -3 3 28 c3 24
7 28 36 28 24 -1 32 4 33 17 1 10 2 21 3 26 1 4 5 25 9 47 5 22 10 48 13 57 5
16 -6 17 -123 15 l-128 -2 -11 -55 c-21 -104 -21 -110 4 -105 29 5 41 -7 31
-32 -8 -22 -14 -23 -99 -23 l-90 0 0 29 c0 25 4 29 24 27 14 -2 29 0 34 3 7 5
43 170 68 311 2 14 6 35 9 48 5 19 1 22 -25 22 -31 0 -35 6 -24 34 5 13 24 16
101 16 83 0 94 -2 89 -16z m-3490 -234 c3 -14 10 -41 15 -61 8 -34 22 -95 34
-159 18 -90 16 -90 68 -4 26 44 71 117 100 164 l53 85 59 0 c78 1 86 -2 76
-28 -5 -14 -18 -22 -36 -24 -15 -1 -29 -3 -30 -5 -2 -2 -6 -28 -10 -58 -3 -30
-8 -71 -10 -90 -3 -19 -7 -57 -10 -85 -2 -27 -7 -71 -10 -97 l-6 -48 31 0 c25
0 31 -3 26 -16 -3 -9 -6 -20 -6 -25 0 -5 -42 -9 -94 -9 l-93 0 5 25 c3 20 10
25 33 25 34 0 36 3 44 95 3 39 7 81 9 95 2 14 7 48 11 75 l6 50 -53 -80 c-29
-44 -69 -106 -88 -138 -30 -49 -39 -57 -66 -57 l-31 0 -28 118 c-35 142 -32
128 -34 150 -2 12 -88 -280 -91 -305 0 -2 14 -3 31 -3 24 0 30 -3 25 -16 -3
-9 -6 -20 -6 -25 0 -5 -42 -9 -94 -9 l-93 0 4 24 c4 19 12 26 37 28 l31 3 50
185 c31 111 47 188 41 192 -5 3 -18 5 -28 3 -13 -3 -18 2 -18 19 0 12 2 25 4
27 3 2 34 4 71 4 62 1 66 -1 71 -25z m2878 12 c-1 -6 -2 -19 -2 -28 -1 -9 -8
-14 -14 -11 -7 2 -21 0 -30 -4 -13 -7 -15 -15 -8 -38 4 -16 11 -60 15 -97 3
-37 8 -70 10 -73 1 -3 6 -35 10 -71 4 -36 8 -66 9 -67 1 -2 17 25 34 60 17 34
59 112 91 172 33 61 60 113 61 116 0 3 -12 5 -26 3 -22 -2 -25 1 -20 19 3 12
6 25 6 28 0 3 37 5 83 4 80 0 82 -1 82 -25 0 -15 -6 -26 -15 -26 -8 -1 -20 -2
-27 -3 -6 0 -18 -13 -25 -28 -8 -16 -28 -53 -45 -83 -16 -30 -63 -115 -102
-187 l-73 -133 -38 0 -38 0 -7 53 c-7 54 -10 71 -19 122 -3 17 -8 50 -11 75
-3 25 -8 56 -11 70 -3 14 -8 43 -10 65 -5 41 -20 58 -41 50 -13 -5 -17 13 -8
37 7 19 171 19 169 0z"/>
<path d="M4895 3365 c-27 -14 -94 -45 -147 -70 l-98 -46 0 -1214 0 -1214 28
-18 c15 -10 36 -23 47 -30 11 -6 58 -36 105 -65 76 -47 129 -78 134 -78 1 0 2
621 2 1380 0 969 -3 1380 -10 1379 -6 0 -33 -11 -61 -24z"/>
<path d="M5280 2010 l0 -1381 33 17 c44 23 271 165 277 175 4 6 6 2398 1 2421
0 4 -36 24 -78 44 -157 74 -223 104 -228 104 -3 0 -5 -621 -5 -1380z"/>
<path d="M4180 3027 l-155 -73 -2 -811 -3 -810 132 -114 c73 -63 144 -124 159
-136 l26 -22 0 1020 c0 560 -1 1019 -1 1019 -1 0 -71 -33 -156 -73z"/>
<path d="M5910 2078 l0 -1021 23 19 c12 10 24 21 27 24 3 3 39 34 80 70 41 36
88 77 105 92 16 14 41 35 55 46 l25 20 0 811 0 810 -110 53 c-60 28 -131 62
-157 75 l-48 22 0 -1021z"/>
<path d="M3630 2769 c-36 -16 -104 -48 -152 -71 l-87 -41 0 -311 0 -310 46
-66 c26 -36 58 -79 72 -96 14 -17 42 -51 61 -75 19 -24 58 -68 86 -98 l52 -54
0 576 c1 318 -2 577 -6 577 -4 -1 -36 -14 -72 -31z"/>
<path d="M6540 2223 l0 -578 51 55 c63 68 184 218 230 285 l34 50 -1 295 c-1
162 -2 302 -3 311 0 8 -20 24 -43 34 -47 20 -248 115 -260 122 -5 2 -8 -256
-8 -574z"/>
</g>
</svg>
