<svg xmlns="http://www.w3.org/2000/svg" width="646.7539" height="569.3677" viewBox="0 0 646.7539 569.3677">
  <title>logo-main</title>
  <g id="Layer_5" data-name="Layer 5">
    <path d="M621.4161,133.6926,651.0332,107.65H389.0107l5.0781,24.12c2.9443,13.9878,2.311,25.1714-1.88,32.4253a15.5437,15.5437,0,0,1-1.918,2.6284q-.2007-1.86-.4038-3.7632l-.1812-1.2949c-4.2964-24.7847-13.668-41.4932-27.855-49.6611l-.9355-.5391-.9883-.4346c-9.2275-4.0605-20.2139-6.0342-33.5869-6.0342-14.9473,0-26.5059,3.4775-34.5186,10.36-12.1519,2.3218-21.5762,7.5791-28.0859,15.686a39.2449,39.2449,0,0,0-6.86,13.0122,62.8349,62.8349,0,0,1,1.4614-12.3843l5.0786-24.1206H4.2793l30.1279,26.0425H31.92l43.3507,35.3227,5.411,4.6773h.3293l8.0853,6.5881,4.7858,4.0916-.05.0142,10.8925,9.2908-.2314.0823,19.2163,16.1888,1.2183,28.6242c.5786,13.3154,1.041,23.0674,1.375,28.9873.3232,5.7256.6118,11.2471.8574,16.4072.26,5.4727.8,13.2764,1.6514,23.8555,1.1274,14.0176,1.4985,17.6445,1.6953,19.24.2188,1.7686.7134,4.9814,2.6123,14.2021,1.3315,6.4629,2.3926,11.4883,3.1538,14.94.8086,3.6621,2.126,8.9512,4.0278,16.17,1.877,7.123,3.6206,13.2988,5.1831,18.3584,1.5479,5.01,3.125,9.8145,4.6875,14.2822,1.5933,4.5537,2.82,7.9092,3.749,10.2549q1.2744,3.22,3.5684,8.7871c1.5537,3.7725,1.8794,4.6074,1.93,4.74-.1055-.2754-.251-.6855-.4043-1.2109a81.9829,81.9829,0,0,0,3.1279,7.6309c1.6118,3.65,2.8564,6.3662,3.8076,8.3047.981,1.999,2.103,4.1328,3.3379,6.3457q1.6384,2.9355,4.9146,8.6875c3.0518,5.3564,4.0063,6.9307,4.5361,7.7617q.7581,1.1895,3.1484,5.0977c2.06,3.3662,2.5425,4.2119,2.5991,4.3125.6836,1.252,1.6538,2.8086,3.2412,5.2q1.6575,2.4961,2.3965,3.6533c.6821,1.0713,1.6,2.4336,2.8022,4.1611q1.4319,2.06,2.2881,3.3311c.8066,1.2021,1.7231,2.49,2.8027,3.9375.88,1.18,1.3467,1.8379,1.59,2.1934.6807.99,1.4531,2.0527,2.3652,3.252q1,1.3125,2.2314,2.9639c.81,1.0859,1.5811,2.1348,2.3218,3.1572.9263,1.2773,1.8657,2.5244,2.7886,3.7041.8882,1.1357,2.0566,2.5762,3.5732,4.4072q2.0706,2.4976,3.1309,3.7686c.7432.8916,2.1191,2.4482,7.1133,7.7539q5.3276,5.66,6.897,7.3057c1.23,1.29,3.1338,3.1826,5.9888,5.9551l4.3779,4.251c.5752.5586,1.251,1.1807,5.7852,5.0869,4.2026,3.6211,5.626,4.78,6.3848,5.376.16.126,1.16.9316,5.2017,4.4365,3.2524,2.8223,5.6943,4.9,7.4653,6.3555q2.4031,1.9746,5.667,4.665c2.3125,1.9072,4.1436,3.3916,5.5952,4.5371,1.479,1.167,2.84,2.209,4.0391,3.0938,1.397,1.0313,2.79,1.9893,4.1563,2.8555,1.168.7383,2.9937,1.8379,5.7441,3.457q3.6628,2.1577,4.9277,2.917,1.1382.6841,3.3594,2.1074c1.2358.791,1.7788,1.1543,1.9741,1.2871a49.1076,49.1076,0,0,0,7.7144,4.3779q4.229,2.1152,6.0361,2.9932a36.2321,36.2321,0,0,0,7.2339,2.6436l7.2554,1.76,6.9624-2.4561c1.5029-.53,3.4131-1.3281,6.395-2.6719,2.4644-1.1113,4.6348-2.1211,6.457-3.0059a49.3737,49.3737,0,0,0,5.3687-2.8955c.55-.3574,1.4224-.9346,2.6289-1.7451.64-.4307,1.2446-.8086,1.7837-1.1133,1.3916-.7881,2.6938-1.584,3.8765-2.3682.0806-.0537.8789-.5723,4.0322-2.4307,2.7788-1.6367,4.6084-2.7373,5.7451-3.458,1.3374-.8467,2.7324-1.8037,4.1606-2.8574,1.2856-.9492,2.9912-2.2852,5.2163-4.085q3.0732-2.4873,4.8105-3.9238,1.4487-1.2,2.5752-2.085c.7441-.585,2.1089-1.6924,6.0928-5.0967l5.2236-4.4687q1.07-.9185,5.9238-5.14c4.1221-3.5869,5.1416-4.41,5.2905-4.5273a89.3013,89.3013,0,0,0,6.8379-6.2461c2.7939-2.7119,6.041-5.9912,9.6514-9.7471,3.5723-3.7168,6.7324-7.08,9.3926-9.9961,3.8545-4.2256,5.2246-5.8867,5.9883-6.8623q1.1382-1.4546,2.7568-3.49c1.3066-1.6455,2.5459-3.2822,3.6826-4.8662.7939-1.1064,1.6309-2.2217,2.4951-3.3291,1.4375-1.8428,2.5664-3.4141,3.4443-4.793.0586-.0908.3916-.6016,1.2568-1.7344,1.125-1.4727,2.3018-3.09,3.4922-4.8018q1.4238-2.0464,2.5-3.5322c.9971-1.375,2.1973-3.1416,3.6611-5.3906q1.8164-2.7861,2.6895-4.0879c.6094-.9062,1.627-2.498,4.5635-7.4424,2.65-4.4658,3.3545-5.5947,3.4922-5.8115.5508-.8623,1.5615-2.5322,5.1943-8.8613q3.9111-6.8115,4.5371-7.9043c.5605-.98,1.2832-2.3447,4.4658-9.1426,2.165-4.626,3.9766-8.6611,5.3838-11.9922,1.3535-3.2041,2.5176-6.0078,3.4609-8.3389.9844-2.4346,2.2188-5.6426,3.666-9.5312,1.5-4.0244,2.5947-7.0889,3.3506-9.3789.5957-1.81,1.1113-3.3145,1.5332-4.4746.6768-1.8633,1.1924-3.4336,1.57-4.7822q.3633-1.2905,2.1768-7.5107c1.3076-4.4873,2.4639-8.7646,3.4365-12.7119q1.3828-5.6074,3.14-13.0459c1.1953-5.0586,2.32-10.1416,3.3438-15.1094,1.0752-5.2217,2.0254-10.7939,2.8213-16.5586.7959-5.7432,1.5059-12.6631,2.1113-20.5635.5957-7.7676,1.376-20.9,2.3838-40.1514.5791-11.0684,1.0381-21.084,1.3643-29.7686l.9777-26.0847,1.7331-1.4818L563.34,184.5354l-.68-.19,4.7543-4.0646,8.0854-6.5881h.4263l5.3854-4.7355,43.28-35.2645Z" transform="translate(-4.2793 -33.3044)" fill="#fff"/>
  </g>
  <g id="black">
    <g>
      <path d="M497.31,273.6069q-1.3764,26.2807-2.1793,36.7484t-1.8352,17.9289q-1.0323,7.461-2.4087,14.1427t-2.9822,13.4743q-1.6059,6.7928-2.8675,11.9153t-2.9822,11.0246q-1.7205,5.902-2.0646,7.127t-1.0323,3.118q-.6883,1.8932-1.6059,4.6772t-2.8674,8.0178q-1.95,5.2338-3.2116,8.352t-3.0969,7.461q-1.8352,4.3431-4.7027,10.4677t-3.441,7.1271q-.5734,1.0022-4.1865,7.294t-4.3586,7.461q-.7456,1.1693-3.5558,5.9021t-3.67,6.0134q-.86,1.2806-2.6381,4.0089T438.7558,470.1q-1.09,1.5032-2.5234,3.5635T433.48,477.45q-1.3191,1.7262-2.0646,2.8953t-2.1792,3.0068q-1.4338,1.8373-2.7528,3.6748t-2.8676,3.7862q-1.5483,1.9489-2.638,3.3408t-4.6454,5.29q-3.5559,3.8975-8.3732,8.9087t-8.4879,8.5746q-3.67,3.5635-4.8748,4.51t-5.62,4.7884q-4.416,3.8419-5.3909,4.6772t-4.8174,4.12q-3.8424,3.2849-5.0467,4.2316t-2.7529,2.2272q-1.5483,1.2806-4.3012,3.5078T362.48,548.274q-1.4337,1.0578-2.7528,1.893t-4.8174,2.8955q-3.4984,2.06-4.588,2.7839t-2.4661,1.5033q-1.3764.78-2.8675,1.7817t-2.1793,1.4477q-.6883.4455-2.9822,1.5591T334.3211,564.7q-3.2115,1.4476-4.4733,1.893l-1.2617.4454-1.3764-.334a15.0293,15.0293,0,0,1-2.9822-1.1136q-1.6058-.78-5.3909-2.6727a44.061,44.061,0,0,1-4.3586-2.3386q-.5735-.4455-2.9249-1.9487t-3.5557-2.2272q-1.2043-.7238-4.7027-2.784t-4.8175-2.8953q-1.3191-.8352-2.7527-1.8931t-3.2689-2.5056q-1.8353-1.4477-4.8749-3.9532t-5.2761-4.3431q-2.2366-1.8373-6.5379-5.568t-5.5056-4.6771q-1.2043-.9465-5.2761-4.4543t-4.5307-3.9532q-.4589-.4457-4.0719-3.9533t-5.0467-5.0111q-1.4337-1.5034-6.3085-6.6816t-5.85-6.3475q-.975-1.1692-2.8675-3.4521t-2.9822-3.6749q-1.09-1.3921-2.1793-2.8955t-2.294-3.118q-1.2043-1.6146-2.1792-2.8953t-1.6632-2.2829q-.6883-1.0022-1.8926-2.6169t-2.0645-2.8954q-.86-1.2806-2.294-3.3407t-2.1793-3.2294q-.7456-1.1693-2.4087-3.6749t-2.1792-3.4522q-.5162-.9465-2.8675-4.7884t-3.0969-5.0112q-.7456-1.1692-3.7278-6.4031t-4.4733-7.9065q-1.491-2.6727-2.6381-5.0112t-3.2116-7.0156q-2.0646-4.6771-2.0646-4.7885t-2.0645-5.1225q-2.0646-5.0112-3.2116-7.9065t-3.2116-8.7973q-2.0645-5.902-4.1291-12.5836t-4.5881-16.2584q-2.5234-9.5767-3.5557-14.2538t-2.8676-13.5857q-1.8352-8.9087-2.1792-11.6928t-1.4911-17.0379q-1.1469-14.254-1.4911-21.4924t-.8029-15.3676q-.4588-8.1293-1.2616-26.6149-.048-1.1029-.0928-2.1655l-14.1415-10.2959c.0273.6426.0548,1.2876.0835,1.95q.8667,19.9533,1.3618,28.7277t.8666,16.5875q.3714,7.8129,1.6094,23.1986t1.6093,18.3905q.3714,3.005,2.3521,12.6209t3.0949,14.6642q1.1142,5.0484,3.8377,15.3856t4.9518,17.5492q2.2284,7.212,4.4566,13.5826t3.4663,9.4959q1.238,3.1252,3.4663,8.5342t2.2284,5.5293q0,.12,2.2283,5.1685t3.4662,7.5726q1.238,2.5241,2.8473,5.409t4.8281,8.5342q3.2187,5.6493,4.0234,6.9114t3.3424,5.409q2.538,4.1469,3.0949,5.1685t2.3522,3.7262q1.7951,2.7045,2.6,3.9666t2.3521,3.4857q1.5475,2.2238,2.476,3.6061t2.2283,3.1252q1.3,1.7428,2.0427,2.8247t1.795,2.4641q1.0524,1.3822,2.3522,3.1251t2.4759,3.3655q1.1761,1.6228,2.3521,3.1253t3.2187,3.9666q2.0426,2.464,3.0949,3.7262t6.3135,6.8513q5.2614,5.5894,6.8088,7.212t5.4471,5.409l4.3948,4.267q.4952.4807,4.89,4.267t5.6946,4.8081q1.3,1.0215,5.9421,5.0484t7.0563,6.01q2.414,1.9833,5.6945,4.6878t5.2614,4.2672q1.9806,1.5624,3.5282,2.7045t2.9711,2.0433q1.4237.9013,5.2,3.1252t5.0755,3.005q1.3.7813,3.8377,2.404t3.1568,2.1035a47.5537,47.5537,0,0,0,4.7042,2.5242q4.0853,2.0434,5.8184,2.8848a16.2142,16.2142,0,0,0,3.2187,1.2019l1.4856.3605,1.3617-.4807q1.3617-.4808,4.828-2.0434t5.9422-2.7646q2.4759-1.202,3.2187-1.6828t2.3522-1.5626q1.6092-1.0818,3.0948-1.9232t2.6617-1.6227q1.1761-.7813,4.9519-3.005t5.1994-3.1252q1.4237-.9015,2.971-2.0433t4.5186-3.546q2.9712-2.4039,4.6424-3.7862t2.971-2.4041q1.3-1.0216,5.447-4.5676t5.1993-4.4474q1.0523-.9015,5.8183-5.0484t6.0661-5.1686q1.3-1.0218,5.2613-4.8681t9.1611-9.2554q5.1995-5.409,9.0372-9.616t5.0138-5.7095q1.176-1.5025,2.8473-3.6061t3.0949-4.0867q1.4235-1.9833,2.9711-3.9666t2.352-3.2454q.8047-1.262,2.2284-3.1252t2.9712-4.0868q1.5474-2.2238,2.7234-3.8464t3.0949-4.5676q1.9188-2.945,2.8474-4.3272t3.9614-6.4908q3.033-5.1085,3.8377-6.3706t4.7042-8.0534q3.9-6.7913,4.5186-7.8731t3.7138-7.6928q3.0949-6.6109,5.0757-11.2988t3.3425-8.0534q1.3617-3.3656,3.4663-9.015t3.0949-8.6545q.99-3.005,1.7331-5.0484t1.1142-3.3655q.3714-1.3222,2.2283-7.6928t3.2187-11.9q1.3618-5.5293,3.0948-12.8614t3.2188-14.5441q1.4855-7.2118,2.6-15.2652t1.9807-19.3521q.8666-11.299,2.3521-39.6659.8647-16.5121,1.351-29.4722L498.614,244.9Q498.1578,257.4164,497.31,273.6069Z" transform="translate(-4.2793 -33.3044)" fill="#333"/>
      <path d="M409.5744,174.1181c-6.1277,10.7233-18.383,18.383-35.7446,23.7446l-.2554-1.2766c-.2553-2.0426-1.5319-12.2553-3.5745-31.4043-3.3191-19.1489-9.7021-30.8936-18.1277-35.7447-6.383-2.8085-14.8085-4.34-25.5319-4.34q-19.1489,0-24.5106,9.1914c-20.17,1.532-29.1064,11.4894-26.5532,29.3618,22.468-1.7873,26.8085,9.7021,14.0426,33.9574-19.1489-2.5532-33.1915-9.4468-42.383-21.7021-9.7021-12.5106-12.2553-28.8511-8.17-48.2553H58l30.1277,26.0426H206.085a3.0224,3.0224,0,0,1,3.3192,3.0638c2.0426,18.383,11.2341,34.9787,27.5745,49.2766,15.0639,13.7872,29.8724,20.6808,44.4255,20.9361l-5.845,85.1333-.0273.3986,52.5958,44.17,52.8511-44.17-.0441-.6432-5.8282-84.8887c14.5532-.2553,29.3617-7.1489,44.4255-20.9361,16.34-14.2979,25.2765-30.8936,27.5744-49.2766,0-1.7872,1.0213-3.0638,3.3192-3.0638H568.3829L598,127.65H413.66C417.7446,147.0542,416.2128,162.6287,409.5744,174.1181Zm-85.872,116.92a.3719.3719,0,0,1,.4271.4142v2.6526a.3775.3775,0,0,1-.4271.4277H318.72v8.452a.4.4,0,0,1-.4271.4265h-2.7567a.3776.3776,0,0,1-.4271-.4265V282.6252a.3719.3719,0,0,1,.4271-.4142h9.7585a.3723.3723,0,0,1,.4277.4142v2.6538a.4008.4008,0,0,1-.4277.4265H318.72v5.3322Zm-6.2981-151.643c4.8511,0,7.66,1.0213,7.66,3.5745,0,2.2979-2.8085,3.3191-7.66,3.3191-5.1064,0-7.1489-1.0212-7.1489-3.3191C310.2553,140.416,312.2979,139.3947,317.4042,139.3947ZM328.1034,299.592V286.0284a3.8321,3.8321,0,0,1,.9824-2.8473,3.9014,3.9014,0,0,1,2.8559-.97h2.9743a3.43,3.43,0,0,1,3.8124,3.8174v2.8609a.3714.3714,0,0,1-.4265.4142h-2.6538a.3714.3714,0,0,1-.4265-.4142v-2.1225a.94.94,0,0,0-1.065-1.0613h-1.378a.94.94,0,0,0-1.065,1.0613v12.0881a.94.94,0,0,0,1.065,1.0613h1.378a.94.94,0,0,0,1.065-1.0613v-2.1225a.3766.3766,0,0,1,.4265-.4265h2.6538a.3991.3991,0,0,1,.4265.4265v2.86a3.43,3.43,0,0,1-3.8124,3.8186h-2.9743a3.8916,3.8916,0,0,1-2.8559-.9713A3.8244,3.8244,0,0,1,328.1034,299.592Z" transform="translate(-4.2793 -33.3044)" fill="#333"/>
      <polygon points="323.721 355.542 434.803 416.687 323.721 335.813 212.999 416.383 323.721 355.542" fill="#333"/>
      <path d="M59.5407,110.0711h22.974q6.771,0,10.32-3.5152,3.5476-3.5147,3.5485-10.31V78.5769a6.4709,6.4709,0,0,0-1.6983-4.499,7.1762,7.1762,0,0,0-4.3037-2.2966v-.187a7.1246,7.1246,0,0,0,4.3037-2.32,6.5547,6.5547,0,0,0,1.6983-4.5228V47.13q0-6.7946-3.5485-10.31t-10.32-3.5152H59.5407A1.3442,1.3442,0,0,0,58,34.8043v73.72a1.4494,1.4494,0,0,0,1.5407,1.5463Zm11.535-64.1128h8.7494q3.8574,0,3.8574,3.8429V61.6118a3.7314,3.7314,0,0,1-.9875,2.7649,3.8971,3.8971,0,0,1-2.87.9845H71.0757Zm0,32.0568h8.7494q3.8574,0,3.8574,3.8429V93.5744q0,3.8432-3.8574,3.8429H71.0757Z" transform="translate(-4.2793 -33.3044)" fill="#333"/>
      <path d="M107.6314,110.0711h9.9824a1.4516,1.4516,0,0,0,1.5463-1.5463v-73.72a1.3468,1.3468,0,0,0-1.5463-1.5h-9.9824a1.3471,1.3471,0,0,0-1.547,1.5v73.72A1.367,1.367,0,0,0,107.6314,110.0711Z" transform="translate(-4.2793 -33.3044)" fill="#333"/>
      <path d="M130.2676,110.0711H140.25a1.4517,1.4517,0,0,0,1.5464-1.5463V84.3416h6.6078l6.4208,24.37a1.5285,1.5285,0,0,0,1.6461,1.3593h10.0182q1.7864,0,1.3643-1.734l-6.633-25.12q7.0085-3.0465,7.0084-12.7009V47.13q0-6.7946-3.52-10.31t-10.3221-3.5152H130.2695a1.3479,1.3479,0,0,0-1.5488,1.5v73.72a1.4518,1.4518,0,0,0,1.547,1.5463Zm11.5288-64.1128h9.514q3.8424,0,3.8429,3.8429V67.8449q0,3.8432-3.8429,3.8429h-9.514Z" transform="translate(-4.2793 -33.3044)" fill="#333"/>
      <path d="M179.2894,110.0711h23.0575q6.7955,0,10.3107-3.5152t3.5152-10.31V47.224q0-6.7947-3.5152-10.3573t-10.3107-3.5623H179.2894a1.347,1.347,0,0,0-1.5469,1.5v73.72A1.367,1.367,0,0,0,179.2894,110.0711Zm11.5288-64.1128h8.8109q3.8424,0,3.8429,3.9371v43.679q0,3.8432-3.8429,3.8429h-8.8109Z" transform="translate(-4.2793 -33.3044)" fill="#333"/>
      <path d="M239.5588,110.0711h10.7791q6.7955,0,10.3107-3.5152t3.5152-10.31V74.0779a3.6208,3.6208,0,0,0-2.5308-3.5617l-22.8239-7.4988V49.8012a3.503,3.503,0,0,1,3.8429-3.8429h4.5932q3.8423,0,3.8429,3.8429V57.3a1.3466,1.3466,0,0,0,1.5464,1.5h9.9824a1.3468,1.3468,0,0,0,1.547-1.5V47.13q0-6.7946-3.5152-10.31t-10.3107-3.5152H239.5588q-6.7024,0-10.2637,3.5384T225.7334,47.13V69.7666a3.4378,3.4378,0,0,0,2.6243,3.5617l22.73,7.4516V93.5744q0,3.8432-3.8429,3.8429H242.652q-3.8432,0-3.8429-3.8429V86.1691a1.3668,1.3668,0,0,0-1.5463-1.5463H227.28a1.3669,1.3669,0,0,0-1.5469,1.5463V96.2457q0,6.7485,3.5616,10.2869T239.5588,110.0711Z" transform="translate(-4.2793 -33.3044)" fill="#333"/>
      <path d="M311.5614,110.0711h10.7923q6.8022,0,10.3234-3.5152,3.5183-3.5147,3.5183-10.31V47.13q0-6.7946-3.5183-10.31t-10.3234-3.5152H311.5614q-6.803,0-10.3227,3.5152t-3.52,10.31v49.116q0,6.7956,3.52,10.31T311.5614,110.0711ZM310.42,49.5205q0-3.8423,3.8567-3.8436h5.5493q3.8565,0,3.8567,3.8436V93.8556q0,3.8432-3.8567,3.8429h-5.5493q-3.8574,0-3.8567-3.8429Z" transform="translate(-4.2793 -33.3044)" fill="#333"/>
      <path d="M347.2576,110.0711H357.24a1.45,1.45,0,0,0,1.5457-1.5463V77.9208h18.0437a1.3672,1.3672,0,0,0,1.547-1.5463V66.7669a1.3473,1.3473,0,0,0-1.547-1.5H358.7857V45.9582h23.8084a1.4517,1.4517,0,0,0,1.5469-1.5463V34.8043a1.3473,1.3473,0,0,0-1.5469-1.5H347.2576a1.3473,1.3473,0,0,0-1.547,1.5v73.72A1.3672,1.3672,0,0,0,347.2576,110.0711Z" transform="translate(-4.2793 -33.3044)" fill="#333"/>
      <path d="M419.2427,110.0711h9.9825a1.3663,1.3663,0,0,0,1.5457-1.5463V84.3416H442.3q6.7485,0,10.2875-3.5617,3.5372-3.5616,3.5384-10.2637V47.13q0-6.7946-3.5145-10.31-3.5165-3.5156-10.3114-3.5152H419.2427a1.3473,1.3473,0,0,0-1.5469,1.5v73.72a1.4517,1.4517,0,0,0,1.5469,1.5463Zm11.5281-64.1128h8.4367q3.8423,0,3.8423,3.8429V67.8449q0,3.8432-3.8423,3.8429h-8.4367Z" transform="translate(-4.2793 -33.3044)" fill="#333"/>
      <path d="M467.2336,110.0711h34.3521a1.3672,1.3672,0,0,0,1.5469-1.5463V98.9172a1.3472,1.3472,0,0,0-1.5469-1.5H478.7618V34.8043a1.3464,1.3464,0,0,0-1.5457-1.5h-9.9825a1.3473,1.3473,0,0,0-1.5469,1.5v73.72A1.3672,1.3672,0,0,0,467.2336,110.0711Z" transform="translate(-4.2793 -33.3044)" fill="#333"/>
      <path d="M511.194,110.0711h10.2637a1.4525,1.4525,0,0,0,1.4992-1.3593l2.6244-14.013H542.64l2.7185,14.013a1.4536,1.4536,0,0,0,1.5,1.3593h10.216q1.36,0,1.36-1.1715a2.386,2.386,0,0,0-.0477-.469L542.4533,34.6166a1.5119,1.5119,0,0,0-1.64-1.3122h-13.31a1.5132,1.5132,0,0,0-1.6411,1.3122l-15.9342,73.8139a2.2161,2.2161,0,0,0-.0929.61Q509.8353,110.0714,511.194,110.0711Zm22.9169-59.9886,6.14,33.5095h-12.279Z" transform="translate(-4.2793 -33.3044)" fill="#333"/>
      <path d="M596.5,33.3044H586.47a1.4518,1.4518,0,0,0-1.5463,1.547V71.6877H576.487q-3.8424,0-3.8423-3.8429V34.8514a1.3472,1.3472,0,0,0-1.5-1.547h-10.03a1.4518,1.4518,0,0,0-1.5463,1.547V70.5162q0,6.7023,3.5383,10.2637t10.2876,3.5616h11.5294v24.1833a1.3663,1.3663,0,0,0,1.5457,1.5463h9.9824a1.4519,1.4519,0,0,0,1.547-1.5463V65.357H598V34.8514A1.3473,1.3473,0,0,0,596.5,33.3044Z" transform="translate(-4.2793 -33.3044)" fill="#333"/>
      <polygon points="167.656 244.582 167.656 244.582 167.656 244.582 315.407 329.76 166.605 221.732 167.656 244.582" fill="#333"/>
      <polygon points="480.379 244.24 480.384 244.14 481.427 220.993 332.035 329.76 480.379 244.24 480.379 244.24" fill="#333"/>
    </g>
  </g>
  <g id="Layer_6" data-name="Layer 6">
    <path d="M217.3172,449.7523l110.79-52.2043,110.9665,52.44A257.9624,257.9624,0,0,1,400.25,502.0706c-26.2523,27.0757-63.3912,53.085-72.1424,53.085-9.2282,0-46.3848-26.659-73.6076-55.085A263.7361,263.7361,0,0,1,217.3172,449.7523Z" transform="translate(-4.2793 -33.3044)" fill="#333"/>
  </g>
  <g id="gold_PANTONE_108U" data-name="gold PANTONE 108U">
    <path d="M447.1063,156.7564c-2.2979,18.383-11.234,34.9787-27.5744,49.2766-15.0639,13.7872-29.8724,20.6808-44.4255,20.9361l5.8724,85.5319,8.6808-7.66-10.2128-72.2553c1.0213,0,4.34-.766,10.2128-2.5532,6.383-1.7873,10.7234-3.3192,12.5106-4.34l28.8511,44.17,6.1277-5.617-30.8936-40.0851c1.7873-1.0213,5.617-4.0851,10.9788-8.4255,7.1489-5.617,11.4893-9.1915,13.2766-11.7447l37.5319,34.2128,7.1489-5.8724-42.383-31.4043a98.58,98.58,0,0,0,14.2978-23.2341l65.1064,23.2341,8.9362-7.4042-72.2553-20.17,4.34-16.34h.2554l101.1064,7.9149,13.7872-11.234H450.4255C448.1276,153.6926,447.1063,154.9692,447.1063,156.7564Z" transform="translate(-4.2793 -33.3044)" fill="#f9b717"/>
    <path d="M236.9787,206.033c-16.34-14.2979-25.5319-30.8936-27.5745-49.2766a3.0224,3.0224,0,0,0-3.3192-3.0638H88.1277l13.7872,11.234,101.1064-7.9149,4.34,16.34-72,20.17,8.6808,7.4042,65.3617-23.2341c4.0852,8.4255,8.6808,16.34,14.5532,23.2341l-42.6383,31.4043,7.1232,5.9115L225.7447,203.99c2.0425,2.5532,6.383,6.1277,13.2766,11.7447q9.5744,6.8936,11.4893,8.4255L219.216,264.3331l6.2734,5.53,28.851-44.17a83.0057,83.0057,0,0,0,12.2554,4.34c6.1277,1.7872,9.4467,2.5532,10.468,2.5532L266.851,304.8415l8.6808,7.66,5.8724-85.5319C266.851,226.7138,252.0426,219.82,236.9787,206.033Z" transform="translate(-4.2793 -33.3044)" fill="#f9b717"/>
    <polygon points="213.163 416.305 230.077 408.348 247.137 400.322 264.198 392.297 281.258 384.271 298.318 376.245 315.379 368.219 323.828 364.244 332.439 368.313 349.5 376.375 366.56 384.438 383.621 392.5 400.681 400.562 417.741 408.624 434.795 416.683 434.803 416.687 323.721 355.542 212.999 416.383 213.163 416.305" fill="#f9b717"/>
    <polygon points="167.657 244.599 168.195 254.64 315.246 329.684 167.657 244.599" fill="#f9b717"/>
    <polygon points="479.835 254.632 480.378 244.251 332.227 329.66 479.835 254.632" fill="#f9b717"/>
  </g>
  <g id="green_PANTONE_356U" data-name="green PANTONE 356U">
    <path d="M172.4739,287.9448q.1739,3.3963.325,6.6117.3191,6.8138,1.3827,20.2316t1.383,16.0384q.3192,2.6207,2.0212,11.0069t2.6593,12.7886q.9575,4.4027,3.2978,13.4177t4.2549,15.3046q1.9148,6.29,3.83,11.8455t2.9785,8.2812q1.0638,2.7256,2.9785,7.4428t1.9148,4.8219q0,.1048,1.9148,4.5076t2.9786,6.6041q1.0637,2.2014,2.4466,4.7172t4.1486,7.4427q2.7658,4.9269,3.4572,6.0275.6849,1.09,2.8328,4.6522L319.686,363.0643Zm52.9894,85.6576H205.7226l.5615-2.9213h3.2966L213.589,350.04h-3.3342l.6-2.8843h19.1417l-1.1987,6.1433h-3.259l.599-3.0716h-8.84l-1.648,8.5037h9.3647l-.6366,3.0716H215.05l-1.7232,8.7281h9.4775l.599-3.1838H226.7Zm36.3347,12.1165H251.7215l.5621-2.9213h3.1838l1.8729-15.8081a18.2262,18.2262,0,0,1,.5245-2.1731h-.1122a15.54,15.54,0,0,1-1.0114,2.0227l-8.7281,13.8976H244.679l-3.3712-13.8976a15.8566,15.8566,0,0,1-.1874-2.0227h-.0752s-.15,1.3485-.3371,2.1731L236.4,382.7976h3.1844l-.5621,2.9213H228.946l.5621-2.9213h3.259l5.6188-20.6412h-3.3342l.5621-2.8843h7.38l3.6337,16.1077a10.4841,10.4841,0,0,1,.2243,1.9105h.0752s.3747-.8234.9738-1.9105l9.9268-16.1077h7.6045l-.6,2.8843h-3.296l-2.435,20.6412h3.2966Z" transform="translate(-4.2793 -33.3044)" fill="#244a23"/>
    <polygon points="198.742 123.707 97.684 131.618 97.636 131.622 131.082 160.218 131.333 160.148 203.082 140.048 198.742 123.707" fill="#244a23"/>
    <path d="M250.5106,224.1606q-1.9149-1.5319-11.4893-8.4255c-6.8936-5.617-11.2341-9.1915-13.2766-11.7447l-37.3023,34.2519,30.7736,26.0907Z" transform="translate(-4.2793 -33.3044)" fill="#244a23"/>
    <polygon points="448.955 123.707 444.614 140.048 516.289 160.056 516.87 160.218 550.316 131.622 549.839 131.585 449.21 123.707 448.955 123.707" fill="#244a23"/>
    <path d="M417.234,215.7351c-5.3617,4.34-9.1915,7.4042-10.9788,8.4255l30.85,40.0289.0433.0562,30.8936-26.0425-.1521-.1386-37.38-34.0742C428.7234,206.5436,424.383,210.118,417.234,215.7351Z" transform="translate(-4.2793 -33.3044)" fill="#244a23"/>
    <path d="M404.96,433.8665V496.46c1.65-1.772,3.1709-3.4276,4.5253-4.9344q3.2978-3.669,4.3083-4.9793t2.4467-3.1448q1.436-1.8346,2.6594-3.5642t2.553-3.4592c.2013-.2619.3883-.51.5677-.75v-33.7Z" transform="translate(-4.2793 -33.3044)" fill="#244a23"/>
    <path d="M336.7186,401.6173V551.4192c.644-.3065,1.2573-.6017,1.8139-.876q2.1275-1.0483,2.7658-1.4676t2.0212-1.3628q1.3827-.9434,2.6593-1.6773t2.2871-1.415q1.0105-.6814,4.255-2.6207c.4548-.2719.8629-.5171,1.2581-.755V409.68Z" transform="translate(-4.2793 -33.3044)" fill="#244a23"/>
    <path d="M268.4769,425.6009v87.8453c.2095.1834.4176.3657.6453.5648q3.7765,3.302,4.8933,4.193t5.1061,4.4028q3.989,3.5118,6.0634,5.2413l.3524.294V417.5749Z" transform="translate(-4.2793 -33.3044)" fill="#244a23"/>
  </g>
  <g id="blue_PANTONE_2945U" data-name="blue PANTONE 2945U">
    <path d="M446.1323,437.9068q3.3509-5.9226,3.8828-6.8661t3.1912-6.709q2.6594-5.7653,4.3614-9.8537t2.8722-7.0234q1.17-2.9351,2.9785-7.862t2.6593-7.5475q.8512-2.6207,1.4894-4.4028t.9573-2.9351q.3192-1.153,1.9148-6.7089T473.205,367.62q1.17-4.8219,2.6593-11.2162T478.63,343.72q1.2766-6.29,2.2339-13.313t1.702-16.8771q.6008-7.95,1.5479-25.5935l-147.8,75.1276L439.082,449.9915c1.5663-2.6745,2.5738-4.37,3.008-5.0614Q442.7814,443.8295,446.1323,437.9068Zm-46.1546-52.1879h-3.97l-3.7841-23.5624h-2.5466l.5621-2.8843h9.2889l-.5608,2.8843h-2.9225l2.5478,17.4191a13.1277,13.1277,0,0,1,.037,2.06h.1122a20.7271,20.7271,0,0,1,.8246-2.06l9.3271-17.4191h-2.9213l.599-2.8843h9.5145l-.5621,2.8843h-2.5848Zm34.4993-12.1165.5621-2.9213h3.333l1.7232-8.7663h-13.672L424.7,370.6811h3.333l-.5608,2.9213H417.0948l.5621-2.9213h3.2972l4.0072-20.6412h-3.296l.5621-2.8843h10.376l-.5621,2.8843h-3.296l-1.7232,8.8032h13.6733l1.7219-8.8032h-3.333l.5621-2.8843H450.06l-.5621,2.8843h-3.333l-4.0466,20.6412h3.3342l-.5621,2.9213Z" transform="translate(-4.2793 -33.3044)" fill="#203b61"/>
    <path d="M209.4042,177.6925l-65.09,23.1373-.2722.0968,37.2766,31.4043.0806-.0594,42.5577-31.3449C218.085,194.033,213.4894,186.118,209.4042,177.6925Z" transform="translate(-4.2793 -33.3044)" fill="#203b61"/>
    <path d="M266.5957,230.033a83.0057,83.0057,0,0,1-12.2554-4.34L225.578,269.727l-.0887.1357,41.3617,34.9787.0154-.1091,10.1973-72.1462C276.0425,232.5862,272.7234,231.82,266.5957,230.033Z" transform="translate(-4.2793 -33.3044)" fill="#203b61"/>
    <path d="M432.8085,200.9266l42.0923,31.1889.2907.2154,37.0212-31.4043-.3941-.1407-64.7123-23.0934A98.58,98.58,0,0,1,432.8085,200.9266Z" transform="translate(-4.2793 -33.3044)" fill="#203b61"/>
    <path d="M389.66,230.033c-5.8724,1.7872-9.1915,2.5532-10.2128,2.5532l10.1638,71.909.049.3464,41.3617-34.9787-.2142-.328L402.17,225.6925C400.383,226.7138,396.0425,228.2457,389.66,230.033Z" transform="translate(-4.2793 -33.3044)" fill="#203b61"/>
    <path d="M370.8395,417.7419V528.2826c.8643-.724,2.1279-1.8071,3.8077-3.2648q3.5635-3.0924,4.4678-3.8785t5-4.4028c1.61-1.4218,2.8656-2.5191,3.7852-3.309V425.8042Z" transform="translate(-4.2793 -33.3044)" fill="#203b61"/>
    <path d="M302.5978,409.549V541.288c.6067.3675,1.2705.7675,2.0541,1.2359q3.2444,1.9393,4.3614,2.6206t3.2976,2.0966q2.1808,1.4151,2.7127,1.8345a40.694,40.694,0,0,0,4.0422,2.2014c.2128.108.3908.1981.5925.3V401.5231Z" transform="translate(-4.2793 -33.3044)" fill="#203b61"/>
    <path d="M234.3561,441.6528v33.8624c.3965.5335.81,1.0922,1.2577,1.7016q1.1171,1.52,2.1276,2.9351t2.0211,2.7255q1.0107,1.31,2.7658,3.4592t2.6593,3.25q.9042,1.1007,5.4252,5.9751l.8037.8663v-62.801Z" transform="translate(-4.2793 -33.3044)" fill="#203b61"/>
  </g>
</svg>
